PathFileType	4	(X/Y/Z)	C:/Users/opensim2020/Desktop/walking_exp_matlab/subject01_walking04_straight_02.trc	
DataRate	CameraRate	NumFrames	NumMarkers	Units	OrigDataRate	OrigDataStartFrame	OrigNumFrames	
100.00	100.00	8	43	mm	100.00	1418	261	
Frame#	Time	LFHD			RFHD			LBHD			RBHD			C7			T10			CLAV			STRN			RBAK			LSHO			LUPA			LELB			LFRM			LWRA			LWRB			LFIN			RSHO			RUPA			RELB			RFRM			RWRA			RWRB			RFIN			LASI			RASI			LPSI			RPSI			LTHI			LKNE			LTIB			LANK			LHEE			LTOE			RTHI			RKNE			RTIB			RANK			RHEE			RTOE			*39			*40			*41			*42			
		X1	Y1	Z1	X2	Y2	Z2	X3	Y3	Z3	X4	Y4	Z4	X5	Y5	Z5	X6	Y6	Z6	X7	Y7	Z7	X8	Y8	Z8	X9	Y9	Z9	X10	Y10	Z10	X11	Y11	Z11	X12	Y12	Z12	X13	Y13	Z13	X14	Y14	Z14	X15	Y15	Z15	X16	Y16	Z16	X17	Y17	Z17	X18	Y18	Z18	X19	Y19	Z19	X20	Y20	Z20	X21	Y21	Z21	X22	Y22	Z22	X23	Y23	Z23	X24	Y24	Z24	X25	Y25	Z25	X26	Y26	Z26	X27	Y27	Z27	X28	Y28	Z28	X29	Y29	Z29	X30	Y30	Z30	X31	Y31	Z31	X32	Y32	Z32	X33	Y33	Z33	X34	Y34	Z34	X35	Y35	Z35	X36	Y36	Z36	X37	Y37	Z37	X38	Y38	Z38	X39	Y39	Z39	X40	Y40	Z40	X41	Y41	Z41	X42	Y42	Z42	X43	Y43	Z43	

1	0.000	1397.79895	1771.94324	1665.77332	1287.70520	1740.17883	1669.69958	1369.52722	1884.50940	1620.46228	1253.88025	1856.25000	1624.83887	1314.30151	1924.16858	1434.82202	1284.53467	1967.06848	1143.89099	1343.97534	1786.73608	1361.04504	1355.75696	1749.28796	1205.80701	1219.65039	1965.29236	1243.10388	1487.23999	1881.10486	1388.85571	1582.40015	1920.04163	1216.16101	1615.28735	1911.74658	1066.65710	1664.39465	1829.97815	993.87671	1677.02771	1702.16724	939.16895	1692.80664	1749.72974	906.50439	1725.47717	1678.55579	878.27100	1182.68433	1811.91602	1394.57788	1063.79456	1874.74963	1206.55994	1054.67126	1894.48279	1085.16150	1017.52667	1888.86621	967.49487	1035.57422	1838.91785	834.71777	991.47278	1877.12122	847.79102	992.21802	1857.42371	763.17877	1432.47327	1841.37634	929.29541	1226.16528	1772.12500	931.81152	1320.77771	1999.49060	954.84491	1184.02844	1951.23071	950.49957	1461.50977	1971.55688	616.89233	1441.01514	2019.64124	488.64059	1412.28174	2125.70386	329.82272	1348.37659	2192.93433	123.46980	1279.62878	2212.35889	106.34445	1420.69922	2086.29175	45.13263	1173.93799	1757.42688	602.58838	1226.38757	1709.33081	461.63367	1230.20557	1698.04382	288.59995	1297.49304	1646.29822	91.11732	1349.14905	1682.18323	40.28950	1312.19238	1504.75391	101.46630	1307.59497	1755.31628	1703.91589	-3102.06982	1973.03064	1023.75452	-3140.59766	2012.48499	1021.92499			 
2	0.010	1398.52380	1762.80640	1664.77356	1288.34521	1731.26526	1669.12720	1370.67249	1875.48474	1619.34460	1254.74011	1847.40955	1623.76453	1315.69556	1914.97986	1433.49536	1286.62390	1957.23035	1142.40466	1344.81238	1777.12451	1360.14551	1356.57788	1739.33472	1204.85999	1221.65393	1956.06384	1241.39514	1488.41101	1870.80090	1387.79578	1583.57446	1909.75098	1215.21399	1616.81030	1901.62378	1065.27234	1665.43689	1819.11572	993.33746	1677.93982	1690.91431	939.78876	1693.98340	1738.19128	906.79736	1726.40784	1666.63806	879.18860	1183.36731	1803.25562	1393.27246	1065.20618	1866.62195	1205.17371	1056.03943	1886.46985	1083.80762	1018.92493	1881.54175	966.16211	1036.48596	1831.98120	833.12537	992.68188	1870.45581	846.42633	993.38165	1851.09717	761.64648	1434.89172	1831.11584	928.34851	1228.24768	1761.73364	930.24707	1322.68884	1989.05908	953.74817	1186.01782	1940.96167	948.91187	1464.29993	1963.36328	616.62012	1443.43591	2011.78845	488.49252	1413.98022	2119.98560	331.08167	1350.13416	2191.47192	127.00564	1280.49854	2210.55054	110.01953	1420.71899	2086.09912	45.18679	1176.92773	1745.16052	601.81299	1229.17285	1698.34863	460.57425	1232.22595	1688.59656	287.04657	1298.92041	1638.49133	88.88660	1350.66211	1674.13647	37.97255	1313.00098	1496.65479	98.35296	1308.33887	1746.74133	1703.04199	-3101.85083	1973.07007	1023.29633	-3140.61475	2012.46741	1021.97522			 
3	0.020	1399.15186	1753.78015	1663.80261	1288.83203	1722.75122	1668.13818	1371.60620	1866.39844	1618.17456	1255.78076	1838.77234	1622.80029	1316.67664	1905.56067	1432.00049	1288.39636	1947.08337	1140.72852	1345.35449	1767.34814	1359.10730	1357.24060	1729.20178	1203.93335	1223.47876	1946.62842	1239.50269	1489.40857	1860.57996	1386.85522	1584.51929	1899.27380	1214.17773	1617.85120	1891.47729	1064.28931	1666.29761	1808.50464	992.74603	1678.65674	1679.92078	940.11298	1694.38855	1726.81812	906.55469	1726.94080	1655.05420	879.62061	1184.03296	1794.41724	1391.81506	1066.76245	1858.18958	1203.34399	1057.69653	1878.20679	1082.24451	1020.40521	1873.82642	964.69427	1037.54614	1824.65100	831.44135	993.90826	1863.42175	844.96851	994.62341	1844.22266	759.98285	1436.95142	1820.32300	927.17059	1230.27490	1751.04968	928.64191	1324.42554	1978.29114	952.62689	1187.93188	1930.43933	947.27716	1466.65417	1954.29980	615.69965	1445.75952	2003.41809	487.96326	1417.98523	2115.96509	334.90845	1351.90820	2189.91724	130.80109	1281.38489	2208.65039	113.95423	1420.71448	2085.88623	45.13140	1180.18481	1732.11267	601.04370	1231.13037	1686.94873	459.47086	1233.79163	1679.97351	285.06680	1300.13232	1632.52942	86.04503	1351.81018	1668.89441	36.09749	1313.50134	1490.63367	94.02637	1308.79187	1737.79163	1702.02380	-3101.91797	1973.00317	1023.72736	-3140.65088	2012.50781	1021.86041			 
4	0.030	1399.66821	1744.65125	1662.69397	1289.40918	1713.87000	1667.47632	1372.44275	1857.17993	1616.88928	1256.33167	1829.84534	1621.66040	1317.70007	1896.27917	1430.56250	1290.17590	1936.72693	1139.04883	1345.86560	1757.48596	1358.23376	1358.08545	1718.76587	1203.25549	1225.35205	1937.10913	1237.61145	1490.19788	1850.17676	1385.80347	1585.18213	1888.74817	1213.13501	1618.71985	1881.52600	1063.27563	1666.98633	1798.08875	992.12427	1679.13184	1669.24414	940.12012	1694.88110	1715.86487	906.27057	1727.41467	1643.94739	879.87402	1184.45898	1785.64233	1390.36560	1068.06848	1849.85291	1201.60950	1059.00122	1869.80249	1080.72839	1021.82983	1865.80713	963.11011	1038.67639	1817.05603	829.74371	995.17615	1855.93030	843.34735	995.67267	1837.23718	758.42194	1439.13562	1809.23975	925.99341	1232.42358	1739.92224	927.06323	1326.14600	1967.18152	951.51105	1189.82654	1919.52612	945.54846	1469.20764	1944.90540	614.96570	1448.41162	1994.83813	487.78171	1417.40320	2107.48340	333.66641	1354.36414	2188.39697	135.40913	1282.95313	2206.78516	118.70156	1420.76611	2085.57813	45.12960	1183.66309	1718.68018	600.23254	1233.25513	1675.78052	457.97009	1235.34448	1672.05945	282.34271	1301.33972	1627.89648	83.05643	1352.51770	1666.31470	35.35789	1313.88538	1486.26355	88.57404	1309.25488	1727.82568	1701.12610	-3101.84326	1973.11096	1023.29559	-3140.58789	2012.49341	1021.97601			 
5	0.040	1399.50244	1734.38477	1661.37744	1289.64319	1705.12366	1666.54163	1373.35535	1848.09705	1615.68103	1257.26599	1821.36816	1620.77173	1318.50391	1887.05200	1429.13123	1291.68750	1926.10632	1137.24390	1346.13745	1747.55823	1357.29688	1358.44983	1708.33276	1202.41284	1226.99939	1927.36060	1235.57813	1490.74463	1839.74329	1384.75220	1585.14221	1877.35925	1211.94055	1619.37695	1871.53796	1062.32849	1667.25244	1787.65393	991.21130	1679.25378	1658.80359	939.74823	1695.25562	1705.31165	905.77704	1727.42297	1633.16309	879.51843	1184.84277	1776.69275	1389.21155	1069.07312	1841.28320	1199.78931	1060.29138	1861.03540	1078.98425	1023.30688	1857.46277	961.43433	1039.86877	1809.04553	827.87793	996.51978	1848.01086	841.65521	997.07928	1829.31177	756.47375	1441.28040	1797.82202	924.86548	1234.33130	1728.62256	925.45227	1327.75708	1955.80615	950.41638	1191.59387	1908.34448	943.90991	1471.97046	1935.30750	614.45160	1451.04626	1985.80432	487.43991	1420.74927	2101.97119	336.58676	1356.16528	2186.15869	139.35733	1284.58167	2204.45068	123.43514	1420.77234	2085.04102	45.03597	1187.08459	1705.35620	599.26031	1235.19312	1665.26831	455.95407	1237.34094	1665.06482	279.89932	1303.82947	1624.67639	80.81042	1355.08386	1664.76880	35.65565	1313.60327	1482.81604	79.87624	1309.77649	1719.08643	1700.24084	-3102.06104	1972.89783	1023.78717	-3140.56812	2012.48462	1021.94891			 
6	0.050	1399.87842	1725.11450	1660.58386	1289.93079	1696.44104	1666.22644	1374.17871	1838.92749	1614.60791	1258.54382	1814.30042	1620.27039	1318.98633	1877.88574	1428.06140	1293.13867	1915.23950	1135.58179	1346.18005	1737.49646	1356.46826	1358.72192	1697.73975	1201.93237	1228.49158	1917.50769	1233.57129	1490.64001	1828.39832	1383.71326	1585.47437	1866.67261	1210.91455	1619.80286	1861.54480	1061.32056	1667.46729	1777.51868	990.31989	1679.14111	1648.67163	939.05609	1695.20630	1695.03296	904.95721	1727.15063	1622.74634	878.82922	1184.80566	1767.69531	1387.65942	1069.88525	1832.93665	1198.04968	1061.72766	1851.99072	1077.10767	1024.66199	1848.73816	959.63605	1040.96033	1800.55444	826.02704	997.89929	1839.66650	839.87665	998.18829	1821.46069	754.79706	1443.08484	1786.06213	923.68549	1236.31104	1717.40552	924.10736	1329.33936	1944.33484	949.45178	1192.81616	1896.88611	942.41791	1474.02051	1924.44128	613.54675	1454.01306	1976.49878	487.14050	1424.69202	2096.27856	339.91064	1358.56311	2183.74121	143.70903	1286.80688	2201.93799	128.57222	1420.99866	2084.87988	45.22128	1189.76050	1692.87878	598.89795	1236.37317	1655.34253	453.91586	1240.28516	1658.51416	277.88766	1306.13977	1621.28650	80.94665	1357.47498	1663.09338	37.00762	1312.83472	1479.78088	71.68250	1310.10120	1710.43396	1699.58093	-3101.95142	1973.05164	1023.44012	-3140.77661	2012.56262	1022.03912			 
7	0.060	1400.16321	1715.63977	1660.61389	1290.01440	1687.48230	1666.32764	1374.96948	1829.47412	1614.14258	1258.86328	1804.63257	1619.90845	1319.53796	1868.63647	1427.57788	1294.58289	1904.19470	1134.39343	1345.45618	1726.45605	1355.92847	1359.00122	1687.14771	1202.07910	1230.30591	1907.59082	1232.20117	1491.06824	1818.08215	1383.15930	1585.84119	1856.09998	1210.13123	1620.15381	1851.75830	1060.53381	1667.46912	1767.55530	989.34277	1678.59900	1638.81665	937.96576	1694.62585	1685.07129	903.70270	1726.76672	1612.90173	878.02710	1184.70947	1758.64563	1386.68103	1070.86182	1823.93225	1196.17737	1062.87573	1842.86792	1075.31494	1025.99268	1839.85400	957.85156	1042.20068	1791.66028	824.15204	999.43616	1830.89392	837.94977	999.56775	1812.94922	753.08508	1444.68372	1774.31812	922.84155	1237.65735	1706.13330	922.90363	1331.02771	1932.82727	948.68390	1193.75610	1885.38464	941.25842	1476.68005	1913.71545	613.37225	1456.39783	1965.85657	486.84787	1429.23376	2090.20703	344.02054	1361.56006	2180.94360	148.84674	1289.63147	2199.04492	134.49532	1421.34692	2084.52441	45.36865	1191.36951	1681.84180	599.70380	1237.47852	1645.65466	452.88614	1242.64758	1651.18762	277.70428	1306.70886	1617.71191	80.72854	1357.85034	1661.29553	38.45419	1313.05457	1476.52087	65.32978	1310.54480	1701.63562	1699.55188	-3101.91504	1973.14368	1023.37634	-3140.66504	2012.60193	1022.00403			 
8	0.070	1400.32898	1705.96472	1661.18213	1290.12158	1678.22852	1667.14880	1375.52698	1819.66406	1614.48303	1259.39087	1795.53223	1620.36609	1319.98706	1858.71680	1427.56677	1296.28418	1893.04749	1133.96472	1345.60620	1716.64221	1356.49902	1359.12073	1676.52612	1202.71350	1231.92590	1897.89954	1231.60022	1491.76978	1807.83313	1383.08313	1585.88220	1845.42542	1209.57813	1617.62366	1839.34021	1057.90540	1667.20337	1757.85681	988.45001	1677.83093	1629.38965	936.58594	1694.20679	1675.67004	902.56494	1725.70142	1603.44263	876.51782	1184.84326	1749.55225	1386.06567	1071.72314	1814.83240	1194.76990	1064.21814	1833.25696	1073.72449	1027.49597	1830.54919	956.11145	1043.42676	1781.98901	822.47363	1000.83691	1822.00439	836.22791	1001.06201	1803.79346	751.60986	1446.05872	1762.46863	922.39789	1239.10083	1694.72913	922.35291	1332.76611	1921.28882	948.30157	1194.78516	1874.01721	940.88971	1479.07080	1902.13318	613.24921	1459.35681	1954.58972	486.89758	1426.37903	2076.46533	339.80655	1360.95325	2174.02588	149.35538	1292.99841	2195.45215	141.32616	1421.58032	2084.04370	45.50430	1191.57397	1671.69592	600.18188	1237.93188	1635.49695	453.77014	1243.59839	1642.24939	278.88760	1306.22668	1614.73938	80.30045	1357.27979	1659.60156	39.84544	1314.85803	1473.88416	58.78989	1310.58252	1692.78345	1700.06982	-3101.82910	1973.22864	1023.28040	-3140.64111	2012.47144	1021.97559			 
